TITLE "WEFUNK SHOW #737"
PERFORMER "WEFUNK RADIO"
REM Year  : 2013
REM Genre : HipHop
FILE "WeFunk_Show_737_2013-05-24.mp3" MP3
	TRACK 01 AUDIO
		TITLE "intro"
		PERFORMER "WEFUNK RADIO"
		INDEX 01 00:00:00
	TRACK 02 AUDIO
		TITLE "get away"
		PERFORMER "de la soul feat. spirit of the wu"
		INDEX 01 01:44:54
	TRACK 03 AUDIO
		TITLE "talk (over sick lyrical damager - it's over instrumental)"
		PERFORMER "WEFUNK RADIO"
		INDEX 01 04:43:73
	TRACK 04 AUDIO
		TITLE "rampage"
		PERFORMER "e.p.m.d. feat. l.l. cool j."
		INDEX 01 10:06:15
	TRACK 05 AUDIO
		TITLE "strictly 4 my jeeps"
		PERFORMER "action bronson"
		INDEX 01 11:45:28
	TRACK 06 AUDIO
		TITLE "open up"
		PERFORMER "styles p. feat. bullpen"
		INDEX 01 14:03:49
	TRACK 07 AUDIO
		TITLE "b.k.l.y.n."
		PERFORMER "hannibal stax & marco polo"
		INDEX 01 17:17:69
	TRACK 08 AUDIO
		TITLE "fame for president"
		PERFORMER "marco polo feat. lil fame"
		INDEX 01 20:16:23
	TRACK 09 AUDIO
		TITLE "born & raised in oakland (blend kings blend)"
		PERFORMER "too short & d.j. quik"
		INDEX 01 23:01:39
	TRACK 10 AUDIO
		TITLE "drunk club factory (blend kings blend)"
		PERFORMER "z-trip, tha liks & mad skillz"
		INDEX 01 24:57:15
	TRACK 11 AUDIO
		TITLE "give up hip-hop (blend kings blend)"
		PERFORMER "public enemy w/ nice & smooth"
		INDEX 01 28:13:55
	TRACK 12 AUDIO
		TITLE "pistol gripping criminal (blend kings blend)"
		PERFORMER "volume 10 & raekwon"
		INDEX 01 31:14:48
	TRACK 13 AUDIO
		TITLE "microphone blend check (blend kings blend)"
		PERFORMER "d.j. zeph & aceyalone"
		INDEX 01 33:03:20
	TRACK 14 AUDIO
		TITLE "this blend is twisted (blend kings blend)"
		PERFORMER "mobb deep & kid creole"
		INDEX 01 35:34:41
	TRACK 15 AUDIO
		TITLE "how you get a record to blend? (blend kings blend)"
		PERFORMER "smooth big kane"
		INDEX 01 37:13:11
	TRACK 16 AUDIO
		TITLE "explosive urban sound blend (blend kings blend)"
		PERFORMER "rjd2 & 4-ever fresh"
		INDEX 01 38:56:47
	TRACK 17 AUDIO
		TITLE "__"
		PERFORMER "dynamites feat. charles walker"
		INDEX 01 40:25:07
	TRACK 18 AUDIO
		TITLE "funky funky twist"
		PERFORMER "gaturs"
		INDEX 01 42:51:62
	TRACK 19 AUDIO
		TITLE "liberation conversation"
		PERFORMER "jasmine kara"
		INDEX 01 45:31:30
	TRACK 20 AUDIO
		TITLE "nothin' but a party (part ii)"
		PERFORMER "blenders"
		INDEX 01 49:18:49
	TRACK 21 AUDIO
		TITLE "i need help (i can't do it alone) (live in paris)"
		PERFORMER "bobby byrd"
		INDEX 01 51:22:05
	TRACK 22 AUDIO
		TITLE "with my love and what you've got (we could turn this world around)"
		PERFORMER "jean wells"
		INDEX 01 56:37:02
	TRACK 23 AUDIO
		TITLE "cantaloupe island"
		PERFORMER "third wave"
		INDEX 01 58:49:36
	TRACK 24 AUDIO
		TITLE "voices of other times"
		PERFORMER "brian auger's oblivion express"
		INDEX 01 62:35:60
	TRACK 25 AUDIO
		TITLE "holla if ya hear me"
		PERFORMER "2pac"
		INDEX 01 68:29:46
	TRACK 26 AUDIO
		TITLE "100 miles & runnin'"
		PERFORMER "n.w.a."
		INDEX 01 71:47:39
	TRACK 27 AUDIO
		TITLE "amerikkka's most wanted"
		PERFORMER "ice cube"
		INDEX 01 74:06:16
	TRACK 28 AUDIO
		TITLE "dr. bombay"
		PERFORMER "del the funky homosapien"
		INDEX 01 78:07:23
	TRACK 29 AUDIO
		TITLE "greatest man alive (man's game mix)"
		PERFORMER "steinski"
		INDEX 01 81:36:10
	TRACK 30 AUDIO
		TITLE "one 2 the head"
		PERFORMER "positive k."
		INDEX 01 83:28:20
	TRACK 31 AUDIO
		TITLE "rollin' with kid 'n play"
		PERFORMER "kid 'n play"
		INDEX 01 87:26:39
	TRACK 32 AUDIO
		TITLE "organizer"
		PERFORMER "chubb rock"
		INDEX 01 91:05:23
	TRACK 33 AUDIO
		TITLE "in the middle"
		PERFORMER "james brown"
		INDEX 01 94:14:15
	TRACK 34 AUDIO
		TITLE "god make me funky"
		PERFORMER "headhunters"
		INDEX 01 96:34:45
	TRACK 35 AUDIO
		TITLE "composition #6"
		PERFORMER "didier's sound spectrum"
		INDEX 01 102:43:48
	TRACK 36 AUDIO
		TITLE "madhouse mumbai"
		PERFORMER "michael leonhart & the avramina 7"
		INDEX 01 105:11:34
	TRACK 37 AUDIO
		TITLE "talk (over 24-carat black - brown baggin')"
		PERFORMER "WEFUNK RADIO"
		INDEX 01 108:16:12
	TRACK 38 AUDIO
		TITLE "brown baggin'"
		PERFORMER "24-carat black"
		INDEX 01 112:26:60
	TRACK 39 AUDIO
		TITLE "soul investigators theme"
		PERFORMER "nicole willis & the soul investigators"
		INDEX 01 114:23:15
	TRACK 40 AUDIO
		TITLE "sweet heaven (12 shades remix)"
		PERFORMER "tom glide feat. timmy thomas"
		INDEX 01 116:54:47